<svg width="176" height="32" viewBox="0 0 176 32" fill="none" xmlns="http://www.w3.org/2000/svg" role="img" aria-label="HubbingHome">
  <path d="M5 16L13 9.5L21 16" stroke="#12313F" stroke-width="2.2" stroke-linecap="round" stroke-linejoin="round"/>
  <path d="M8 14.8V22C8 23.1 8.9 24 10 24H16C17.1 24 18 23.1 18 22V14.8" stroke="#12313F" stroke-width="2.2" stroke-linecap="round" stroke-linejoin="round"/>
  <path d="M23.5 10.5C27.1 14.1 27.1 19.9 23.5 23.5" stroke="#2F6F68" stroke-width="2.2" stroke-linecap="round"/>
  <path d="M27.5 7C33 12.5 33 21.5 27.5 27" stroke="#2F6F68" stroke-width="2.2" stroke-linecap="round"/>
  <path d="M44.6 23V9.4H47.1V14.9H53.1V9.4H55.6V23H53.1V17.1H47.1V23H44.6ZM62.1 23.2C59.8 23.2 58.2 21.7 58.2 19.1V13H60.6V18.7C60.6 20.2 61.4 21 62.7 21C64 21 64.9 20.1 64.9 18.5V13H67.3V23H65.1L65 21.6C64.4 22.6 63.4 23.2 62.1 23.2ZM75 23.2C73.6 23.2 72.5 22.6 71.8 21.7L71.6 23H69.5V9H71.9V14.3C72.6 13.4 73.7 12.8 75 12.8C77.7 12.8 79.6 15 79.6 18C79.6 21 77.7 23.2 75 23.2ZM74.5 21.1C76.1 21.1 77.2 19.8 77.2 18C77.2 16.2 76.1 14.9 74.5 14.9C72.9 14.9 71.8 16.2 71.8 18C71.8 19.8 72.9 21.1 74.5 21.1ZM87 23.2C85.6 23.2 84.5 22.6 83.8 21.7L83.6 23H81.5V9H83.9V14.3C84.6 13.4 85.7 12.8 87 12.8C89.7 12.8 91.6 15 91.6 18C91.6 21 89.7 23.2 87 23.2ZM86.5 21.1C88.1 21.1 89.2 19.8 89.2 18C89.2 16.2 88.1 14.9 86.5 14.9C84.9 14.9 83.8 16.2 83.8 18C83.8 19.8 84.9 21.1 86.5 21.1ZM93.6 23V13H96V23H93.6ZM94.8 11.4C93.9 11.4 93.3 10.8 93.3 10C93.3 9.2 93.9 8.6 94.8 8.6C95.7 8.6 96.3 9.2 96.3 10C96.3 10.8 95.7 11.4 94.8 11.4ZM98.4 23V13H100.6L100.8 14.4C101.4 13.4 102.4 12.8 103.8 12.8C106.1 12.8 107.7 14.3 107.7 16.9V23H105.3V17.3C105.3 15.8 104.5 15 103.2 15C101.9 15 100.8 15.9 100.8 17.7V23H98.4ZM114.5 27.4C112 27.4 110.1 26.2 109.8 24.2H112.2C112.5 25 113.3 25.4 114.5 25.4C116.1 25.4 117 24.6 117 22.9V21.7C116.3 22.6 115.2 23.2 113.9 23.2C111.2 23.2 109.3 21 109.3 18C109.3 15 111.2 12.8 113.9 12.8C115.3 12.8 116.5 13.5 117.1 14.4L117.3 13H119.4V22.8C119.4 25.7 117.5 27.4 114.5 27.4ZM114.4 21.1C116 21.1 117.1 19.8 117.1 18C117.1 16.2 116 14.9 114.4 14.9C112.8 14.9 111.7 16.2 111.7 18C111.7 19.8 112.8 21.1 114.4 21.1ZM122 23V9.4H124.5V14.9H130.5V9.4H133V23H130.5V17.1H124.5V23H122ZM140.3 23.2C137.5 23.2 135.4 21.1 135.4 18C135.4 14.9 137.6 12.8 140.4 12.8C143.2 12.8 145.3 14.9 145.3 18C145.3 21.1 143.1 23.2 140.3 23.2ZM140.3 21.1C141.8 21.1 142.9 19.9 142.9 18C142.9 16.1 141.8 14.9 140.3 14.9C138.8 14.9 137.8 16.1 137.8 18C137.8 19.9 138.8 21.1 140.3 21.1ZM147.2 23V13H149.3L149.5 14.3C150.1 13.4 151 12.8 152.3 12.8C153.7 12.8 154.8 13.5 155.4 14.7C156.1 13.5 157.3 12.8 158.7 12.8C161 12.8 162.5 14.3 162.5 16.9V23H160.1V17.2C160.1 15.8 159.4 15 158.2 15C157 15 156.1 15.9 156.1 17.5V23H153.7V17.2C153.7 15.8 153 15 151.8 15C150.6 15 149.6 15.9 149.6 17.5V23H147.2ZM169.5 23.2C166.6 23.2 164.5 21.1 164.5 18C164.5 14.9 166.6 12.8 169.4 12.8C172.1 12.8 174.1 14.8 174.1 17.7C174.1 18 174.1 18.3 174 18.6H166.9C167.1 20.2 168.1 21.2 169.6 21.2C170.7 21.2 171.5 20.7 171.9 19.9H173.9C173.4 21.9 171.7 23.2 169.5 23.2ZM166.9 16.9H171.7C171.6 15.6 170.6 14.8 169.4 14.8C168.1 14.8 167.2 15.6 166.9 16.9Z" fill="#15202B"/>
</svg>
